<svg width="45" height="42" viewBox="0 0 45 42" fill="none" xmlns="http://www.w3.org/2000/svg">
<path d="M37.8066 6.47917C35.8118 4.57793 33.4364 3.07063 30.8186 2.04508C28.2009 1.01953 25.3932 0.496256 22.5591 0.505742C10.6837 0.505742 1.00547 9.64308 0.994596 20.8606C0.994596 24.4534 1.98988 27.9486 3.86896 31.0431L0.820557 41.5955L12.2527 38.7654C15.4154 40.3908 18.9585 41.2428 22.5591 41.2437H22.57C34.4482 41.2437 44.1236 32.1063 44.1345 20.8786C44.1372 18.2027 43.5793 15.5528 42.4927 13.0815C41.4062 10.6102 39.8127 8.36629 37.8038 6.47917H37.8066ZM22.5591 37.7973C19.3475 37.7983 16.195 36.9821 13.4329 35.4346L12.7803 35.0648L5.99822 36.7443L7.80931 30.4961L7.38509 29.8515C5.58979 27.1559 4.6403 24.0348 4.64669 20.8503C4.64669 11.5383 12.6878 3.94187 22.57 3.94187C24.9242 3.93788 27.2561 4.37402 29.431 5.22514C31.6059 6.07625 33.5809 7.32551 35.2422 8.90089C36.9093 10.4701 38.2308 12.3355 39.1307 14.3895C40.0305 16.4435 40.4909 18.6454 40.4851 20.8683C40.4743 30.2136 32.4331 37.7973 22.5591 37.7973ZM32.3896 25.1262C31.8539 24.872 29.2079 23.6418 28.7103 23.4672C28.2154 23.3003 27.8537 23.213 27.5002 23.7215C27.1385 24.2274 26.1052 25.3805 25.7952 25.7117C25.4851 26.0533 25.1643 26.0918 24.6258 25.8401C24.0901 25.5833 22.3524 25.0492 20.2966 23.3106C18.6922 21.9623 17.618 20.293 17.2972 19.7871C16.9871 19.2786 17.2672 19.0064 17.5365 18.7522C17.773 18.5262 18.0722 18.1564 18.3414 17.8636C18.6133 17.5708 18.7031 17.3551 18.8798 17.0161C19.0566 16.672 18.9723 16.3792 18.839 16.125C18.7031 15.8707 17.6289 13.3617 17.1748 12.3499C16.7397 11.3509 16.2964 11.4895 15.9647 11.4767C15.6547 11.4587 15.293 11.4587 14.9313 11.4587C14.6582 11.4651 14.3894 11.5248 14.1419 11.634C13.8943 11.7431 13.6733 11.8994 13.4928 12.0931C12.9978 12.6015 11.6137 13.8317 11.6137 16.3407C11.6137 18.8498 13.5444 21.2612 13.8164 21.6028C14.0829 21.9443 17.6072 27.078 23.016 29.2866C24.2941 29.813 25.3002 30.1238 26.0861 30.36C27.3778 30.7504 28.5444 30.6913 29.4744 30.5655C30.5078 30.4165 32.6588 29.3328 33.1129 28.1437C33.5589 26.9521 33.5589 25.9352 33.423 25.722C33.2897 25.5063 32.928 25.3805 32.3896 25.1262Z" fill="white"/>
</svg>
